<svg width="90" height="60" viewBox="0 0 90 60" fill="none" xmlns="http://www.w3.org/2000/svg">
<g clip-path="url(#clip0_918_696)">
<path fill-rule="evenodd" clip-rule="evenodd" d="M0 0H89.0323V60H0V0Z" fill="#229E45"/>
<path fill-rule="evenodd" clip-rule="evenodd" d="M44.7109 54.5L86.6534 30.0375L44.4605 5.5L2.37885 30.0875L44.7109 54.5Z" fill="#F8E509"/>
<path fill-rule="evenodd" clip-rule="evenodd" d="M62.9903 30C62.9903 38.7875 55.047 45.9125 45.2395 45.9125C41.7349 45.9075 38.3105 44.969 35.3993 43.2156C32.4882 41.4622 30.2209 38.9726 28.8842 36.0615C27.5474 33.1505 27.2012 29.9486 27.8893 26.8608C28.5775 23.7729 30.269 20.9377 32.7501 18.7136C35.2312 16.4894 38.3905 14.9762 41.8285 14.3652C45.2666 13.7541 48.8291 14.0727 52.0657 15.2807C55.3023 16.4887 58.0676 18.5318 60.0122 21.1517C61.9567 23.7717 62.9931 26.8509 62.9903 30Z" fill="#2B49A3"/>
<path fill-rule="evenodd" clip-rule="evenodd" d="M39.4107 39.5375L38.8543 39.25L38.2978 39.5L38.423 38.9375L37.9779 38.5125L38.6039 38.45L38.9099 37.95L39.1742 38.475L39.7863 38.575L39.3272 38.95M51.291 42.2375L50.7484 41.95L50.192 42.2L50.3033 41.6375L49.872 41.225L50.498 41.1625L50.7901 40.65L51.0684 41.175L51.6805 41.275L51.2075 41.6625M46.1716 37.9125L45.6986 37.6625L45.2117 37.8875L45.323 37.4L44.9335 37.0375L45.4899 36.9875L45.7403 36.5375L45.9629 37L46.5055 37.0875L46.0881 37.425M58.191 36.3625L57.718 36.1125L57.2311 36.3375L57.3424 35.85L56.9668 35.5L57.5093 35.45L57.7597 35.0125L57.9823 35.4625L58.5109 35.55L58.1075 35.875M45.9629 33.125L45.4065 32.85L44.85 33.1L44.9613 32.525L44.5301 32.1125L45.1561 32.05L45.4482 31.5375L45.7264 32.0625L46.3385 32.1625L45.8656 32.5625M31.3143 28.1875L30.7579 27.9125L30.2014 28.1625L30.3406 27.5875L29.8815 27.175L30.5214 27.1125L30.7996 26.6L31.0778 27.125L31.6899 27.225L31.2309 27.6125M33.0811 34.7625L32.5246 34.475L31.9682 34.725L32.0934 34.1625L31.6482 33.75L32.2742 33.675L32.5664 33.175L32.8446 33.7L33.4567 33.8L32.9976 34.1875M51.3605 25.775L50.8597 25.525L50.3589 25.75L50.4702 25.25L50.0807 24.875L50.6371 24.8125L50.9014 24.3625L51.1379 24.8375L51.6944 24.925L51.277 25.2625M50.345 30.05L49.9694 29.85L49.566 30.025L49.6494 29.625L49.3434 29.3375L49.7885 29.2875L49.9972 28.9375L50.1781 29.3125L50.5954 29.375L50.2893 29.65M30.5075 35.95L30.1319 35.7625L29.7563 35.925L29.8397 35.55L29.5476 35.275L29.9649 35.225L30.1597 34.8875L30.3406 35.2375L30.7579 35.3125L30.4379 35.5625M58.2883 37.475L57.9823 37.3375L57.6762 37.4625L57.7458 37.175L57.5093 36.975L57.8432 36.9375L58.0101 36.6875L58.1492 36.9375L58.497 37L58.2327 37.1875" fill="#FFFFEF"/>
<path fill-rule="evenodd" clip-rule="evenodd" d="M30.5075 35.95L30.1319 35.7625L29.7563 35.925L29.8397 35.55L29.5476 35.275L29.9649 35.225L30.1597 34.8875L30.3406 35.2375L30.7579 35.3125L30.4379 35.5625" fill="#FFFFEF"/>
<path fill-rule="evenodd" clip-rule="evenodd" d="M30.5075 35.95L30.1319 35.7625L29.7563 35.925L29.8397 35.55L29.5476 35.275L29.9649 35.225L30.1597 34.8875L30.3406 35.2375L30.7579 35.3125L30.4379 35.5625M36.3224 35.9375L35.9607 35.7625L35.5851 35.925L35.6686 35.55L35.3764 35.275L35.7938 35.225L35.9885 34.8875L36.1694 35.2375L36.5867 35.3L36.2668 35.5625M35.599 37.6875L35.2373 37.5L34.8617 37.675L34.9452 37.3L34.6531 37.0125L35.0704 36.9625L35.2651 36.625L35.446 36.975L35.8633 37.05L35.5434 37.3M47.7018 34.525L47.3401 34.325L46.9506 34.5L47.0341 34.125L46.7559 33.8375L47.1732 33.8L47.368 33.4625L47.5349 33.8125L47.9522 33.875L47.6462 34.1375M44.1545 34.5125L43.7789 34.325L43.4033 34.5L43.4867 34.125L43.2085 33.8375L43.6258 33.8L43.8206 33.45L43.9875 33.8125L44.4049 33.875L44.0988 34.1375M34.5278 33.4125L34.2914 33.2875L34.0549 33.3875L34.1105 33.15L33.9297 32.975L34.194 32.95L34.3053 32.7375L34.4166 32.9625L34.6809 33L34.4861 33.1625M57.8293 38.8375L57.4676 38.65L57.092 38.825L57.1754 38.45L56.8833 38.1625L57.3006 38.1125L57.4954 37.775L57.6762 38.125L58.0936 38.2L57.7736 38.45M54.8801 39.2L54.574 39.025L54.2541 39.175L54.3236 38.85L54.0871 38.625L54.4349 38.5875L54.6018 38.3L54.741 38.6L55.0887 38.65L54.8244 38.875M56.2712 39.1625L55.993 39.0125L55.7008 39.1375L55.7565 38.85L55.5339 38.6375L55.8539 38.6L56.0069 38.35L56.146 38.6L56.466 38.6625L56.2295 38.8625M60.2776 36.0125L59.9994 35.8875L59.7212 36.0125L59.7907 35.725L59.5682 35.5125L59.8881 35.475L60.0272 35.225L60.1664 35.4875L60.4585 35.5375L60.2359 35.7375M54.8383 40.9625L54.4906 40.7875L54.1149 40.9375L54.1984 40.5875L53.9202 40.3375L54.3375 40.3L54.5184 39.9875L54.6853 40.3125L55.1026 40.375L54.7827 40.6125M54.8662 42.3875L54.5323 42.2125L54.1984 42.375L54.2819 42.025L54.0176 41.775L54.3932 41.725L54.5601 41.4125L54.7131 41.7375L55.0887 41.8L54.8105 42.05M52.1674 39.1625L51.9031 39.0125L51.6248 39.1375L51.6805 38.8625L51.4718 38.65L51.7778 38.625L51.917 38.375L52.0561 38.625L52.3621 38.675L52.1395 38.875M49.6633 39.1625L49.3851 39.0125L49.1069 39.1375L49.1764 38.8625L48.9539 38.65L49.2738 38.625L49.4129 38.375L49.552 38.625L49.8442 38.675L49.6216 38.875M45.3926 35.8L45.1143 35.6625L44.8361 35.7875L44.9057 35.5L44.6831 35.3L44.9891 35.2625L45.1283 35.0125L45.2674 35.2625L45.5734 35.325L45.3508 35.5125M45.8656 42.6375L45.643 42.525L45.3926 42.6375L45.4482 42.3875L45.2674 42.2125L45.5317 42.1875L45.6569 41.975L45.7682 42.2L46.0325 42.2375L45.8377 42.4M39.4107 31.575L38.8543 31.2875L38.2978 31.5375L38.423 30.975L37.9778 30.5625L38.6039 30.4875L38.9099 29.9875L39.1742 30.5125L39.7863 30.6125L39.3272 31" fill="#FFFFEF"/>
<path fill-rule="evenodd" clip-rule="evenodd" d="M61.8218 35.725C62.1664 34.9215 62.4363 34.0936 62.6286 33.25C53.1968 25.8125 42.6938 22 29.4224 22.7875C28.9411 23.6244 28.5453 24.4988 28.2399 25.4C43.9597 24.05 55.5061 30.3 61.8218 35.725Z" fill="white"/>
<path d="M57.5927 31.55L57.9127 31.7125C57.8649 31.7974 57.8502 31.8942 57.8709 31.9875C57.9035 32.078 57.9732 32.1539 58.0657 32.2C58.1631 32.2625 58.2605 32.3 58.3439 32.2875C58.4274 32.2875 58.483 32.25 58.5248 32.2C58.549 32.1668 58.5589 32.1268 58.5526 32.0875C58.5412 32.0413 58.5173 31.9984 58.483 31.9625C58.4552 31.925 58.3857 31.8375 58.2744 31.7375C58.16 31.6314 58.0743 31.5031 58.024 31.3625C57.9893 31.2561 57.9983 31.142 58.0493 31.041C58.1004 30.9401 58.1901 30.859 58.3022 30.8125C58.4034 30.7746 58.5152 30.7658 58.6222 30.7875C58.7529 30.8146 58.8761 30.8656 58.9839 30.9375C59.1786 31.0625 59.3038 31.1875 59.3455 31.3375C59.3648 31.4077 59.3673 31.4807 59.3529 31.5518C59.3385 31.6229 59.3076 31.6904 59.2621 31.75L58.9282 31.5625C58.9699 31.4875 58.9839 31.4125 58.956 31.35C58.9421 31.2875 58.8865 31.225 58.7891 31.175C58.7176 31.1234 58.6302 31.0928 58.5387 31.0875C58.5135 31.0867 58.4885 31.0921 58.4665 31.1032C58.4444 31.1142 58.4261 31.1304 58.4135 31.15C58.3857 31.1875 58.3857 31.225 58.3996 31.275C58.4135 31.325 58.483 31.425 58.6222 31.55C58.7613 31.675 58.8447 31.7875 58.9004 31.8625C58.9501 31.9444 58.9725 32.0374 58.9651 32.1305C58.9577 32.2236 58.9208 32.3128 58.8587 32.3875C58.7936 32.4725 58.7014 32.5378 58.5943 32.575C58.49 32.6182 58.3734 32.6313 58.2605 32.6125C58.1353 32.5875 58.0101 32.5375 57.8709 32.45C57.6623 32.325 57.5371 32.1875 57.4953 32.0375C57.45 31.8674 57.48 31.6882 57.5788 31.5375L57.5927 31.55ZM55.979 30.6L56.3268 30.7625C56.2837 30.8488 56.2739 30.9456 56.299 31.0375C56.3345 31.1233 56.4038 31.1944 56.4937 31.2375C56.605 31.3 56.6885 31.325 56.772 31.3125C56.8554 31.3125 56.9111 31.275 56.9528 31.2125C56.9739 31.1828 56.9837 31.1477 56.9806 31.1125C56.9806 31.075 56.9528 31.025 56.9111 30.9875C56.8398 30.9102 56.7656 30.8352 56.6885 30.7625C56.5355 30.625 56.4381 30.5125 56.4103 30.4125C56.3875 30.3482 56.3807 30.2802 56.3903 30.2132C56.3999 30.1463 56.4257 30.082 56.4659 30.025C56.5188 29.9479 56.5964 29.8869 56.6885 29.85C56.7841 29.8104 56.8906 29.7973 56.9945 29.8125C57.1232 29.832 57.2462 29.8745 57.3562 29.9375C57.5649 30.0625 57.6901 30.1875 57.7318 30.325C57.7572 30.3953 57.7653 30.4696 57.7557 30.543C57.7461 30.6163 57.719 30.6869 57.6762 30.75L57.3284 30.575C57.3701 30.4875 57.3841 30.425 57.3562 30.3625C57.3284 30.3 57.2728 30.2375 57.1754 30.1875C57.0984 30.1379 57.0058 30.1116 56.9111 30.1125C56.8882 30.1139 56.8661 30.1203 56.8467 30.1312C56.8273 30.1421 56.8112 30.1572 56.7998 30.175C56.772 30.2125 56.772 30.25 56.7859 30.3C56.7998 30.35 56.8832 30.45 57.0224 30.575C57.1615 30.7 57.2589 30.8 57.3006 30.875C57.3563 30.9534 57.386 31.0445 57.386 31.1375C57.386 31.2305 57.3563 31.3216 57.3006 31.4C57.2406 31.4872 57.1536 31.5567 57.0502 31.6C56.9459 31.6432 56.8292 31.6563 56.7163 31.6375C56.5731 31.6158 56.4361 31.569 56.3129 31.5C56.1331 31.4139 55.9945 31.2716 55.9234 31.1C55.8696 30.9331 55.8895 30.754 55.979 30.6ZM54.0036 30.125L55.0191 28.625L56.2433 29.3125L56.0764 29.5625L55.1861 29.0625L54.9635 29.4L55.7982 29.8625L55.6173 30.1125L54.7826 29.65L54.5044 30.0625L55.4365 30.5625L55.2695 30.8125L54.0175 30.125H54.0036ZM51.124 28L51.277 27.75L52.0282 28.0875L51.6804 28.7125C51.5691 28.7375 51.43 28.75 51.2631 28.7375C51.1028 28.7216 50.9472 28.6792 50.804 28.6125C50.6357 28.5388 50.4918 28.4267 50.3867 28.2875C50.291 28.1581 50.2424 28.0053 50.2476 27.85C50.2546 27.6884 50.3022 27.5303 50.3867 27.3875C50.4703 27.2372 50.5947 27.1082 50.7484 27.0125C50.8954 26.9211 51.0704 26.8731 51.2492 26.875C51.3883 26.875 51.5274 26.9125 51.6943 27C51.9169 27.0875 52.056 27.2125 52.1256 27.35C52.1979 27.4865 52.2128 27.6419 52.1673 27.7875L51.7917 27.6875C51.8147 27.6038 51.8049 27.5155 51.7639 27.4375C51.7222 27.3625 51.6526 27.3125 51.5413 27.2625C51.4765 27.2292 51.4045 27.2087 51.3302 27.2022C51.2558 27.1958 51.1808 27.2035 51.1101 27.225C50.9709 27.2625 50.8457 27.375 50.7484 27.55C50.651 27.725 50.6093 27.8875 50.651 28.025C50.6702 28.0902 50.7051 28.1509 50.7531 28.2027C50.8012 28.2545 50.8613 28.2963 50.9292 28.325C50.9988 28.3625 51.0822 28.3875 51.1657 28.3875C51.2487 28.3988 51.3331 28.3988 51.4161 28.3875L51.5274 28.1875L51.124 28ZM38.576 25.2125L38.8542 23.4625L39.4385 23.55L39.5915 24.775L40.1341 23.65L40.7183 23.725L40.4401 25.45L40.0645 25.4L40.301 24.0375L39.6889 25.35L39.3133 25.3L39.1603 23.8875L38.9377 25.2625L38.576 25.2125ZM36.6145 25L36.7953 23.25L38.2282 23.375L38.2004 23.675L37.157 23.5875L37.1153 23.9625L38.0891 24.05L38.0474 24.35L37.0736 24.2625L37.0318 24.7375L38.1169 24.825L38.0891 25.125L36.6145 25Z" fill="#309E3A"/>
<path d="M30.1179 23.9125C30.1179 23.725 30.1597 23.5875 30.2153 23.4625C30.2641 23.3736 30.33 23.2932 30.4101 23.225C30.4814 23.1603 30.5666 23.1093 30.6605 23.075C30.7996 23.0375 30.9387 23.0125 31.0778 23.0125C31.3699 23.0125 31.5925 23.1125 31.7734 23.2625C31.8595 23.3581 31.9235 23.4681 31.9617 23.5861C31.9999 23.7042 32.0116 23.8279 31.996 23.95C31.996 24.225 31.8986 24.45 31.7177 24.6125C31.6248 24.6897 31.5149 24.7485 31.3951 24.7851C31.2752 24.8217 31.1482 24.8353 31.0222 24.825C30.8978 24.8261 30.7745 24.8046 30.6597 24.7616C30.545 24.7186 30.4411 24.6551 30.3544 24.575C30.1813 24.3909 30.0963 24.1527 30.1179 23.9125Z" fill="#309E3A"/>
<path d="M30.5214 23.9125C30.5214 24.1 30.5631 24.25 30.6605 24.3625C30.7579 24.4625 30.8831 24.525 31.05 24.525C31.1222 24.5296 31.1946 24.5196 31.262 24.4958C31.3294 24.472 31.39 24.435 31.4395 24.3875C31.5369 24.2875 31.5786 24.1375 31.5925 23.925C31.5925 23.725 31.5647 23.575 31.4534 23.475C31.4081 23.4246 31.3509 23.3839 31.286 23.3558C31.221 23.3277 31.1499 23.3129 31.0778 23.3125C31.0046 23.3104 30.9318 23.3228 30.8645 23.3487C30.7972 23.3746 30.7371 23.4134 30.6883 23.4625C30.577 23.5625 30.5353 23.7125 30.5214 23.9125Z" fill="#F7FFFF"/>
<path d="M32.4133 24.8125L32.4412 23.0625H33.2758C33.4845 23.0625 33.6236 23.0875 33.721 23.125C33.8184 23.15 33.8879 23.2125 33.9436 23.2875C33.9992 23.3625 34.027 23.4625 34.027 23.575C34.0281 23.6953 33.9784 23.8114 33.8879 23.9C33.7851 23.9866 33.6527 24.0394 33.5123 24.05L33.721 24.2C33.7766 24.25 33.8462 24.35 33.9297 24.4875L34.1662 24.8375H33.6932L33.4149 24.4375L33.2202 24.1875C33.1865 24.1531 33.1433 24.1272 33.095 24.1125C33.0317 24.0959 32.9661 24.0875 32.9002 24.0875H32.8168V24.8125H32.4133Z" fill="#309E3A"/>
<path d="M32.8307 23.8125H33.1089C33.3037 23.8125 33.4289 23.8125 33.4706 23.7875C33.5123 23.7875 33.5541 23.75 33.5819 23.725C33.6097 23.7 33.6236 23.6375 33.6236 23.6C33.6236 23.525 33.6097 23.475 33.568 23.45C33.5402 23.4125 33.4845 23.3875 33.4289 23.375H33.1506L32.8307 23.3625V23.8V23.8125Z" fill="white"/>
<path d="M34.6391 23.15L35.3625 23.1875C35.5155 23.1875 35.6407 23.2 35.7242 23.225C35.8325 23.2603 35.9285 23.3207 36.0024 23.4C36.0826 23.4874 36.1396 23.59 36.1694 23.7C36.2111 23.8125 36.225 23.95 36.2111 24.1125C36.211 24.2401 36.1875 24.3668 36.1415 24.4875C36.0859 24.6125 36.0024 24.7125 35.9051 24.7875C35.824 24.8475 35.7289 24.8902 35.6268 24.9125C35.5434 24.9375 35.4182 24.9375 35.279 24.9375L34.5417 24.9L34.6391 23.15Z" fill="#309E3A"/>
<path d="M35.0147 23.4625L34.9452 24.625H35.4738C35.5434 24.625 35.599 24.6 35.6408 24.5625C35.6825 24.525 35.7242 24.475 35.752 24.4C35.7799 24.325 35.8077 24.2125 35.8077 24.075L35.7938 23.7625C35.7739 23.6966 35.7356 23.6363 35.6825 23.5875C35.6363 23.5457 35.5787 23.5156 35.5156 23.5C35.4104 23.479 35.3033 23.4664 35.1956 23.4625H35.0147Z" fill="white"/>
<path d="M44.1823 26.275L44.6413 24.575L45.2534 24.7L45.6986 24.825C45.796 24.875 45.8794 24.95 45.9212 25.0625C45.9768 25.1625 45.9768 25.275 45.949 25.4125C45.9212 25.5125 45.8794 25.6 45.8099 25.6625C45.7588 25.7174 45.695 25.7615 45.6229 25.7918C45.5508 25.822 45.4721 25.8376 45.3925 25.8375C45.2952 25.8375 45.156 25.8125 44.9752 25.775L44.7387 25.7125L44.5718 26.3625L44.1823 26.275Z" fill="#309E3A"/>
<path d="M44.9334 24.95L44.8221 25.425L45.0308 25.475C45.1699 25.5 45.2812 25.525 45.3369 25.5125C45.391 25.5058 45.4414 25.4841 45.4813 25.4505C45.5212 25.417 45.5485 25.3731 45.5594 25.325C45.5594 25.2625 45.5594 25.2125 45.5316 25.1625C45.5011 25.1117 45.4519 25.072 45.3925 25.05L45.1282 24.9875L44.9473 24.95H44.9334Z" fill="white"/>
<path d="M45.9907 26.7625L46.6446 25.1125L47.4097 25.3625C47.6183 25.425 47.7435 25.4875 47.827 25.5375C47.8966 25.6 47.9522 25.6625 47.9661 25.7625C47.98 25.8625 47.9939 25.95 47.9661 26.05C47.9105 26.175 47.827 26.2625 47.7157 26.325C47.6044 26.375 47.4653 26.3875 47.2984 26.3625C47.354 26.425 47.4097 26.4875 47.4375 26.5625L47.5488 26.9L47.6323 27.2875L47.201 27.15L47.0619 26.7C47.0366 26.5982 47.0041 26.498 46.9645 26.4C46.9461 26.3611 46.9174 26.3268 46.881 26.3C46.8532 26.2625 46.7976 26.2375 46.7002 26.2125L46.6306 26.1875L46.3524 26.8875L45.9907 26.7625Z" fill="#309E3A"/>
<path d="M46.7419 25.925L47.0063 26.0125C47.1871 26.075 47.2984 26.1 47.354 26.1C47.3958 26.1 47.4375 26.1 47.4792 26.0625C47.521 26.0375 47.5488 26 47.5627 25.95C47.5905 25.9 47.5905 25.85 47.5627 25.8C47.5421 25.7515 47.5025 25.7115 47.4514 25.6875L47.1732 25.6L46.895 25.5125L46.728 25.925H46.7419Z" fill="white"/>
<path d="M48.2722 26.7C48.32 26.5536 48.4005 26.4175 48.5087 26.3C48.579 26.2246 48.6638 26.1611 48.7591 26.1125C48.8453 26.0687 48.9395 26.0391 49.0373 26.025C49.1764 26.025 49.3155 26.025 49.4685 26.075C49.5929 26.1026 49.7093 26.1537 49.81 26.2248C49.9107 26.2959 49.9935 26.3855 50.0528 26.4875C50.1641 26.6875 50.1641 26.925 50.0806 27.2C50.0118 27.4362 49.8418 27.6385 49.6076 27.7625C49.399 27.875 49.1486 27.8875 48.8843 27.8125C48.7603 27.7841 48.6442 27.7328 48.5436 27.6617C48.443 27.5907 48.36 27.5015 48.3 27.4C48.2443 27.2907 48.2131 27.1726 48.2083 27.0525C48.2036 26.9324 48.2253 26.8126 48.2722 26.7Z" fill="#309E3A"/>
<path d="M48.6617 26.8C48.606 26.9875 48.5921 27.15 48.6617 27.275C48.7312 27.4 48.8286 27.475 48.9816 27.525C49.1207 27.5625 49.2598 27.55 49.399 27.475C49.5381 27.4125 49.6215 27.275 49.6911 27.075C49.7607 26.8875 49.7607 26.7375 49.6911 26.6125C49.6636 26.5532 49.622 26.5 49.5691 26.4568C49.5162 26.4136 49.4534 26.3814 49.385 26.3625C49.3166 26.3413 49.2438 26.3336 49.1718 26.3401C49.0997 26.3466 49.0301 26.367 48.9677 26.4C48.8286 26.475 48.7312 26.6 48.6617 26.8Z" fill="white"/>
<path d="M52.0699 29.1375L52.9603 27.5875L53.6976 27.925C53.8366 27.9849 53.9635 28.0652 54.0732 28.1625C54.1427 28.225 54.1845 28.3 54.1845 28.4C54.1845 28.5 54.1845 28.5875 54.1288 28.675C54.0753 28.7874 53.9757 28.8769 53.8506 28.925C53.7115 28.95 53.5724 28.95 53.4193 28.9C53.475 28.975 53.5028 29.05 53.5306 29.1125C53.5585 29.1875 53.5724 29.3 53.5863 29.4625L53.6141 29.8625L53.1968 29.675L53.1411 29.2125C53.1345 29.1076 53.1206 29.0033 53.0994 28.9C53.0899 28.8532 53.0658 28.8099 53.0298 28.775L52.8629 28.6875L52.7933 28.65L52.4177 29.3L52.0699 29.1375Z" fill="#309E3A"/>
<path d="M52.9325 28.4L53.1968 28.525C53.3637 28.6 53.475 28.65 53.5168 28.65C53.5585 28.65 53.6141 28.65 53.6559 28.625C53.6976 28.6125 53.7254 28.575 53.7533 28.525C53.7811 28.475 53.795 28.425 53.7811 28.375C53.7639 28.3252 53.7299 28.2815 53.6837 28.25C53.6023 28.2051 53.5187 28.1634 53.4333 28.125L53.1551 28L52.9325 28.4Z" fill="white"/>
<path d="M59.276 32.3375C59.3661 32.209 59.4844 32.0984 59.6238 32.0125C59.7174 31.9587 59.8211 31.9205 59.9299 31.9C60.0308 31.8815 60.1349 31.8815 60.2359 31.9C60.375 31.925 60.5002 31.975 60.6254 32.05C60.7337 32.1106 60.8267 32.1908 60.8986 32.2855C60.9704 32.3802 61.0195 32.4873 61.0428 32.6C61.0845 32.8125 61.015 33.05 60.848 33.2875C60.7084 33.4941 60.4832 33.6424 60.222 33.7C60.0975 33.7242 59.9686 33.7244 59.844 33.7007C59.7193 33.677 59.6016 33.6299 59.4986 33.5625C59.3904 33.5019 59.2973 33.4217 59.2255 33.327C59.1536 33.2323 59.1045 33.1252 59.0813 33.0125C59.0396 32.7875 59.1091 32.5625 59.276 32.3375Z" fill="#309E3A"/>
<path d="M59.6238 32.5375C59.4847 32.7 59.443 32.85 59.4708 32.9875C59.481 33.0508 59.5062 33.1114 59.5446 33.1653C59.5829 33.2192 59.6337 33.2651 59.6934 33.3C59.8325 33.3875 59.9716 33.4125 60.1107 33.375C60.2498 33.3375 60.3889 33.25 60.5141 33.075C60.6393 32.9 60.695 32.75 60.6672 32.625C60.6532 32.5 60.5698 32.3875 60.4446 32.3C60.3194 32.2125 60.1663 32.2 60.0272 32.2375C59.8881 32.2625 59.749 32.3625 59.6099 32.5375H59.6238Z" fill="white"/>
<path d="M41.9843 25.5625L42.3042 24.3375L43.3058 24.55L43.2641 24.75L42.5268 24.6L42.4572 24.875L43.1389 25.0125L43.0832 25.225L42.4016 25.075L42.3181 25.4125L43.0832 25.575L43.0276 25.775L41.9843 25.5625Z" fill="#309E3A"/>
</g>
<defs>
<clipPath id="clip0_918_696">
<rect width="89.0323" height="60" fill="white"/>
</clipPath>
</defs>
</svg>
